<mxfile host="app.diagrams.net" agent="Mozilla/5.0 (Windows NT 10.0; Win64; x64) AppleWebKit/537.36 (KHTML, like Gecko) Chrome/135.0.0.0 Safari/537.36 Edg/135.0.0.0" version="26.2.3">
  <diagram name="第 1 页" id="cEjRVkE32NrOpdx_Yme9">
    <mxGraphModel dx="1499" dy="834" grid="1" gridSize="10" guides="1" tooltips="1" connect="1" arrows="1" fold="1" page="1" pageScale="1" pageWidth="1000" pageHeight="1000" math="0" shadow="0">
      <root>
        <mxCell id="0" />
        <mxCell id="1" parent="0" />
        <mxCell id="Qutxd0gtZdZ3SICL4CZT-7" value="" style="rounded=1;whiteSpace=wrap;html=1;" vertex="1" parent="1">
          <mxGeometry x="70" y="130" width="160" height="40" as="geometry" />
        </mxCell>
        <mxCell id="Qutxd0gtZdZ3SICL4CZT-5" value="" style="rounded=1;whiteSpace=wrap;html=1;" vertex="1" parent="1">
          <mxGeometry x="70" y="70" width="160" height="40" as="geometry" />
        </mxCell>
        <mxCell id="Qutxd0gtZdZ3SICL4CZT-3" value="" style="shape=image;verticalLabelPosition=bottom;labelBackgroundColor=default;verticalAlign=top;aspect=fixed;imageAspect=0;editableCssRules=.*;image=data:image/svg+xml,PHN2ZyB4bWxucz0iaHR0cDovL3d3dy53My5vcmcvMjAwMC9zdmciIHdpZHRoPSIyNTAwLjAwMDEyNDIyMzg5NDUiIHZpZXdCb3g9IjUuNTQzMjA3NjQ1NDE2MjYgOS4zMDUwMDEyNTg4NTAwOTggNzguOTEzNzk1NDcxMTkxNCAyNi4zOTAzMDA3NTA3MzI0MjIiIGhlaWdodD0iMTI1MC4wMDAyMTMxODEyMTkxIj48cGF0aCBmaWxsPSIjZWU0YzJjIiBkPSJtMjQuMjcgMTcuMDU5LTEuOTE1IDEuOTE4YzMuMTkyIDMuMTkxIDMuMTkyIDguMzk0IDAgMTEuNTg1LTMuMTk1IDMuMTk2LTguMzk0IDMuMTk2LTExLjU5IDAtMy4xOS0zLjE5LTMuMTktOC4zOTQgMC0xMS41ODVsNS4xMS01LjExLjY0LS43M3YtMy44MzJsLTcuNzU3IDcuNzU0YTEwLjg1NCAxMC44NTQgMCAwIDAgMCAxNS40MjEgMTAuODU0IDEwLjg1NCAwIDAgMCAxNS40MjIgMGM0LjM3OS00LjI4OSA0LjM3OS0xMS4yMjIuMDktMTUuNDIxem0wIDAiLz48cGF0aCBmaWxsPSIjZWU0YzJjIiBkPSJtMjEuODk4IDE1LjA1YTEuNDYxIDEuNDYxIDAgMCAxIC0yLjkyMSAwIDEuNDYgMS40NiAwIDAgMSAyLjkyMSAwem0wIDAiLz48cGF0aCBmaWxsPSIjMjUyNTI1IiBkPSJtMzYuMDA4IDI0LjAyaC0xLjV2My44NTloLTEuMTIxdi0xMC45NTNoMi43MzhjMi45MDIgMCA0LjI3MyAxLjQxIDQuMjczIDMuNDUzIDAgMi40MDYtMS43MDMgMy42MS00LjM5OCAzLjY0OHptLjA3NC02LjA1NWgtMS42MTN2NS4wMmwxLjU3OC0uMDQ0YzIuMDc0LS4wMzkgMy4xOTUtLjg3IDMuMTk1LTIuNTcgMC0xLjUzNS0xLjA3OC0yLjQwNi0zLjE1Mi0yLjQwNnptOS4zODMgOS44Ny0uNjY0IDEuNzQzYy0uNzQ2IDEuOTUtMS41IDIuNTMxLTIuNjE0IDIuNTMxLS42MiAwLTEuMDc4LS4xNjQtMS41NzgtLjM3NWwuMzMyLS45OTJjLjM3NS4yMDcuNzkuMzMyIDEuMjQ2LjMzMi42MjIgMCAxLjA3OS0uMzMyIDEuNjYtMS44NzVsLjU0LTEuNDEtMy4xMS03LjkyNmgxLjE2bDIuNTMyIDYuNjQgMi40ODgtNi42NGgxLjEyMXptNi44NDQtOS44Mjd2OS45MTRoLTEuMTIxdi05LjkxNGgtMy44NTZ2LTEuMDgyaDguODMydjEuMDM5aC0zLjg1NHptNy4wMTEgMTAuMTJjLTIuMjQyIDAtMy45MDItMS42Ni0zLjkwMi00LjIzMyAwLTIuNTcgMS43MDMtNC4yNzQgMy45NzctNC4yNzQgMi4yMzggMCAzLjg1OSAxLjY2IDMuODU5IDQuMjM0IDAgMi41Ny0xLjcwMyA0LjI3NC0zLjk0MSA0LjI3NHptLjA0LTcuNWMtMS43IDAtMi44MiAxLjM2OC0yLjgyIDMuMjM1IDAgMS45NSAxLjE2MyAzLjI3OCAyLjg2MiAzLjI3OCAxLjcgMCAyLjgyLTEuMzY4IDIuODItMy4yMzUgMC0xLjk1My0xLjE2My0zLjI3Ny0yLjg2My0zLjI3N3ptNi42OCA3LjI5NGgtMS4wOHYtOC4wNWwxLjA4LS4yMDh2MS43MDNjLjUzOC0xLjAzOSAxLjMyNy0xLjcwMyAyLjM2Ni0xLjcwMy40OTIuMDA0Ljk3Ny4xMzMgMS40MS4zNzVsLS4yOTMgMS4wMzVjLS4zMjgtLjIwNy0uNzg1LS4zMzItMS4yNDItLjMzMi0uODMyIDAtMS42MTcuNjI1LTIuMjgxIDIuMDc0djUuMTA2em04LjA0Ni4yMDdjLTIuNDA2IDAtMy45NDEtMS43NDItMy45NDEtNC4yMzQgMC0yLjUyOCAxLjY2LTQuMjc0IDMuOTQtNC4yNzQuOTk3IDAgMS44My4yNSAyLjUzMi43MDdsLS4yODkuOTk2YTMuOTg2IDMuOTg2IDAgMCAwIC0yLjI0Mi0uNjY0Yy0xLjc0MiAwLTIuODIgMS4yODUtMi44MiAzLjE5NSAwIDEuOTUgMS4xNjQgMy4yMzUgMi44NjMgMy4yMzVhNC4xOSA0LjE5IDAgMCAwIDIuMjQyLS42NjRsLjIwNy45OTZjLS43MDcuNDU3LTEuNTc4LjcwMy0yLjQ5Mi43MDN6bTkuMjUtLjIwN3YtNS4xODhjMC0xLjQxLS41NzgtMi4wMjMtMS43LTIuMDIzLS45MTMgMC0xLjgyMy40NTMtMi40ODggMS4xNnY2LjA5OGgtMS4wODJ2LTExLjg2NGwxLjA4Mi0uMjA3djUuMDU5Yy44MjktLjgyOCAxLjkwNy0xLjI4NSAyLjc3OC0xLjI4NSAxLjU3OCAwIDIuNTMxLjk5NiAyLjUzMSAyLjczOHY1LjUxNnptMCAwIi8+PC9zdmc+;clipPath=inset(12.67% 70.67% 12.67% 0%);" vertex="1" parent="1">
          <mxGeometry x="80" y="80" width="15.72" height="20" as="geometry" />
        </mxCell>
        <mxCell id="Qutxd0gtZdZ3SICL4CZT-4" value="torch.Tensor" style="text;html=1;align=center;verticalAlign=middle;whiteSpace=wrap;rounded=0;" vertex="1" parent="1">
          <mxGeometry x="119.64" y="80" width="80" height="20" as="geometry" />
        </mxCell>
        <mxCell id="Qutxd0gtZdZ3SICL4CZT-6" value="" style="shape=image;verticalLabelPosition=bottom;labelBackgroundColor=default;verticalAlign=top;aspect=fixed;imageAspect=0;editableCssRules=.*;image=data:image/svg+xml,PHN2ZyB4bWxucz0iaHR0cDovL3d3dy53My5vcmcvMjAwMC9zdmciIHZpZXdCb3g9Ijc2IDY0IDI5Ny4wMDU5ODE0NDUzMTI1IDQ3MSIgd2lkdGg9IjE4NzMuOTk5ODgyOTI2NjYwMyIgaGVpZ2h0PSIyNTAwIj48ZyBmaWxsLXJ1bGU9ImV2ZW5vZGQiPjxwYXRoIGZpbGw9IiMwYzA0NTQiIGQ9Ik0zMjEgMjQyLjAxN3YxNzguMDE3bDI1Ljc1LS4yNjcgMjUuNzUtLjI2Ny4yNTMtMTc3Ljc1LjI1My0xNzcuNzVIMzIxek0xNTkgMTQ1LjVWMTk5aDUyVjkyaC01MnpNNzYgMzU3djE3OGg1MlYxNzlINzZ6bTE2NC0xMjQuMDE3VjI4N0gyOTIuMDE3bC0uMjU4LTUzLjc1LS4yNTktNTMuNzUtMjUuNzUtLjI2Ny0yNS43NS0uMjY3ek0xNTkgMzY1djU0aDUyVjMxMWgtNTJ6bTgxIDg4djU0aDUyVjM5OWgtNTJ6Ii8+PHBhdGggZmlsbD0iI2YzNjg0OCIgZD0iTTE1OSAyNTUuNVYyODFoNTJ2LTUxaC01MnptODEgODhWMzY5aDUydi01MWgtNTJ6Ii8+PC9nPjwvc3ZnPg==;" vertex="1" parent="1">
          <mxGeometry x="80" y="140" width="15" height="20" as="geometry" />
        </mxCell>
        <mxCell id="Qutxd0gtZdZ3SICL4CZT-9" value="pandas.DataFrame" style="text;html=1;align=center;verticalAlign=middle;whiteSpace=wrap;rounded=0;" vertex="1" parent="1">
          <mxGeometry x="100" y="140" width="119.28" height="20" as="geometry" />
        </mxCell>
        <mxCell id="Qutxd0gtZdZ3SICL4CZT-10" value="" style="rounded=1;whiteSpace=wrap;html=1;" vertex="1" parent="1">
          <mxGeometry x="70" y="190" width="160" height="40" as="geometry" />
        </mxCell>
        <mxCell id="Qutxd0gtZdZ3SICL4CZT-12" value="numpy.ndarray" style="text;html=1;align=center;verticalAlign=middle;whiteSpace=wrap;rounded=0;" vertex="1" parent="1">
          <mxGeometry x="100" y="200" width="119.28" height="20" as="geometry" />
        </mxCell>
        <mxCell id="Qutxd0gtZdZ3SICL4CZT-13" value="" style="shape=image;verticalLabelPosition=bottom;labelBackgroundColor=default;verticalAlign=top;aspect=fixed;imageAspect=0;editableCssRules=.*;image=data:image/svg+xml,PHN2ZyB4bWxucz0iaHR0cDovL3d3dy53My5vcmcvMjAwMC9zdmciIHZpZXdCb3g9IjAgMCAyNTYgMjczLjYxMTk5OTUxMTcxODc1IiB3aWR0aD0iMjMzNiIgcHJlc2VydmVBc3BlY3RSYXRpbz0ieE1pZFlNaWQiIGhlaWdodD0iMjQ5OS45OTk5OTU1Mzg1NjEiPjxwYXRoIGZpbGw9IiM0ZGFiY2YiIGQ9Ik0xOTEuNTQ4IDE4Ni4yOTJsLjA2IDYwLjUyLTUzLjcwNSAyNi44di02MC40OTR6TTI1NiAxNTMuOTQ3djYwLjczMWwtNDUuODA1IDIyLjg2LS4wMzMtNjAuNDU0em0tNjQuNTMzLTQ4LjY2bC4wNiA1OS44ODUtNTMuNjI1IDI2LjY0N3YtNTkuOTA1em02NC41MzMtMzIuMDgydjU5LjUwOWwtNDUuODUxIDIzLjMwOS0uMDQtNjAuMDA1em0tMTI2LjI2Mi03LjA0bDQ3LjkzMyAyNC4xOTUtNDkuNzMxIDI0Ljk3NS00Ny4wMjgtMjMuNjJ6TTYzLjA2NSAzMi41MTFsNDUuNzE4IDIzLjA3Ny00OC45MzggMjUuNTQzLTQ2Ljk1NC0yMy41OHptMTMwLjY5LjM1bDQ5LjI0MyAyNC42OS00NC4wNCAyMi4xMi00OC4wMzItMjQuMjI4ek0xMjguMjMzIDBsNDQuMzMgMjIuMjI1LTQyLjUwNiAyMi42OTRMODQuMzc3IDIxLjg4eiIvPjxwYXRoIGZpbGw9IiM0ZDc3Y2YiIGQ9Ik0xMTguOTQ0IDEzMS45MTRMODIuNzcgMTEzLjcyOHY3OC42MDZTMzguNTMzIDk4LjIwNyAzNC40MzQgODkuNzUyYy0uNTI4LTEuMDkxLTIuNzAzLTIuMjg4LTMuMjU5LTIuNTc4QzIzLjI0MyA4My4wMDkgMCA3MS4yMzUgMCA3MS4yMzVWMjEwLjExbDMyLjE1NCAxNy4xODh2LTcyLjU5czQzLjc2OCA4NC4xMDUgNDQuMjExIDg1LjAyNGMuNDQzLjkyIDQuODQgOS43ODQgOS41MzMgMTIuODk3IDYuMjUzIDQuMTM5IDMzLjA1MyAyMC4yNTUgMzMuMDUzIDIwLjI1NXoiLz48L3N2Zz4=;" vertex="1" parent="1">
          <mxGeometry x="78.52000000000001" y="200" width="18.68" height="20" as="geometry" />
        </mxCell>
      </root>
    </mxGraphModel>
  </diagram>
</mxfile>
